<svg width="331" height="89" viewBox="0 0 331 89" fill="none" xmlns="http://www.w3.org/2000/svg">
<path d="M5.80664 5.93335C16.164 5.93335 26.0971 10.1003 33.4209 17.5176C40.7447 24.9349 44.8591 34.9948 44.8591 45.4844V83.0667C34.5018 83.0667 24.5686 78.8997 17.2448 71.4824C9.92109 64.0652 5.80664 54.0052 5.80664 43.5156V5.93335Z" fill="#780096"/>
<path d="M48.2695 51.0885V31.1315C48.2695 27.8213 48.9135 24.5436 50.1647 21.4855C51.4159 18.4274 53.2498 15.649 55.5616 13.309C57.8733 10.9689 60.6177 9.11313 63.6379 7.84759C66.6581 6.58206 69.8949 5.93159 73.1633 5.93335V25.897C73.1633 29.2069 72.5193 32.4844 71.268 35.5421C70.0167 38.5997 68.1828 41.3777 65.8709 43.7172C63.559 46.0567 60.8146 47.9119 57.7945 49.1767C54.7743 50.4415 51.5377 51.0912 48.2695 51.0885Z" fill="#780096"/>
<path d="M48.2695 54.9858H76.7992C84.1475 54.9858 91.1949 57.9422 96.391 63.2046C101.587 68.467 104.506 75.6044 104.506 83.0465H75.9765C68.6281 83.0465 61.5808 80.0902 56.3847 74.8278C51.1887 69.5653 48.2695 62.428 48.2695 54.9858Z" fill="#780096"/>
<path d="M189.454 83.0667H173.484L156.109 54.5125L150.165 58.8698V83.0667H136.102V15.2969H150.165V46.3078C151.103 44.979 152.025 43.6502 152.933 42.3214C153.84 40.9925 154.763 39.6637 155.7 38.3349L173.666 15.2969H189.272L166.135 45.288L189.454 83.0667Z" fill="#780096"/>
<path d="M242.806 57.062C242.806 61.3884 242.231 65.2203 241.082 68.5578C239.962 71.8953 238.314 74.7229 236.137 77.0406C233.989 79.3274 231.388 81.058 228.333 82.2323C225.309 83.4066 221.891 83.9938 218.08 83.9938C214.511 83.9938 211.23 83.4066 208.236 82.2323C205.272 81.058 202.686 79.3274 200.478 77.0406C198.3 74.7229 196.606 71.8953 195.397 68.5578C194.217 65.2203 193.627 61.3884 193.627 57.062C193.627 51.3141 194.625 46.4469 196.622 42.4604C198.618 38.474 201.461 35.4455 205.151 33.375C208.84 31.3045 213.241 30.2693 218.353 30.2693C223.101 30.2693 227.305 31.3045 230.965 33.375C234.655 35.4455 237.543 38.474 239.63 42.4604C241.747 46.4469 242.806 51.3141 242.806 57.062ZM207.737 57.062C207.737 60.4613 208.1 63.3198 208.825 65.6375C209.551 67.9552 210.685 69.7012 212.228 70.8755C213.77 72.0498 215.782 72.637 218.262 72.637C220.712 72.637 222.693 72.0498 224.205 70.8755C225.747 69.7012 226.866 67.9552 227.562 65.6375C228.288 63.3198 228.651 60.4613 228.651 57.062C228.651 53.6318 228.288 50.7887 227.562 48.5328C226.866 46.246 225.747 44.5309 224.205 43.3875C222.662 42.2441 220.651 41.6724 218.171 41.6724C214.511 41.6724 211.85 42.9549 210.186 45.5198C208.553 48.0847 207.737 51.9321 207.737 57.062Z" fill="#780096"/>
<path d="M282.275 41.8578H270.298V83.0667H256.461V41.8578H248.839V35.0438L256.461 31.2427V27.4417C256.461 23.0226 257.187 19.5924 258.639 17.151C260.121 14.6788 262.192 12.9483 264.854 11.9594C267.546 10.9396 270.722 10.4297 274.381 10.4297C277.073 10.4297 279.523 10.6615 281.731 11.125C283.939 11.5576 285.738 12.0521 287.129 12.6083L283.591 22.9917C282.532 22.6517 281.383 22.3427 280.143 22.0646C278.903 21.7865 277.481 21.6474 275.878 21.6474C273.943 21.6474 272.521 22.25 271.614 23.4552C270.737 24.6295 270.298 26.1438 270.298 27.9979V31.2427H282.275V41.8578ZM318.251 41.8578H306.274V83.0667H292.437V41.8578H284.816V35.0438L292.437 31.2427V27.4417C292.437 23.0226 293.163 19.5924 294.615 17.151C296.097 14.6788 298.169 12.9483 300.83 11.9594C303.522 10.9396 306.698 10.4297 310.357 10.4297C313.049 10.4297 315.499 10.6615 317.707 11.125C319.915 11.5576 321.714 12.0521 323.106 12.6083L319.567 22.9917C318.508 22.6517 317.359 22.3427 316.119 22.0646C314.879 21.7865 313.458 21.6474 311.855 21.6474C309.919 21.6474 308.497 22.25 307.59 23.4552C306.713 24.6295 306.274 26.1438 306.274 27.9979V31.2427H318.251V41.8578Z" fill="#780096"/>
</svg>
