<svg width="16" height="16" viewBox="0 0 16 16" fill="none" xmlns="http://www.w3.org/2000/svg">
<g id="mdi:youtube">
<path id="Vector" d="M6.66668 9.99992L10.1267 7.99992L6.66668 5.99992V9.99992ZM14.3733 4.77992C14.46 5.09325 14.52 5.51325 14.56 6.04658C14.6067 6.57992 14.6267 7.03992 14.6267 7.43992L14.6667 7.99992C14.6667 9.45992 14.56 10.5333 14.3733 11.2199C14.2067 11.8199 13.82 12.2066 13.22 12.3733C12.9067 12.4599 12.3333 12.5199 11.4533 12.5599C10.5867 12.6066 9.79334 12.6266 9.06001 12.6266L8.00001 12.6666C5.20668 12.6666 3.46668 12.5599 2.78001 12.3733C2.18001 12.2066 1.79334 11.8199 1.62668 11.2199C1.54001 10.9066 1.48001 10.4866 1.44001 9.95325C1.39334 9.41992 1.37334 8.95992 1.37334 8.55992L1.33334 7.99992C1.33334 6.53992 1.44001 5.46659 1.62668 4.77992C1.79334 4.17992 2.18001 3.79325 2.78001 3.62659C3.09334 3.53992 3.66668 3.47992 4.54668 3.43992C5.41334 3.39325 6.20668 3.37325 6.94001 3.37325L8.00001 3.33325C10.7933 3.33325 12.5333 3.43992 13.22 3.62659C13.82 3.79325 14.2067 4.17992 14.3733 4.77992Z" fill="white"/>
</g>
</svg>
