<svg width="331" height="89" viewBox="0 0 331 89" fill="none" xmlns="http://www.w3.org/2000/svg">
<g clip-path="url(#clip0_48_2375)">
<path d="M5.80701 5.93335C16.1644 5.93335 26.0975 10.1003 33.4213 17.5176C40.745 24.9349 44.8595 34.9948 44.8595 45.4844V83.0667C34.5021 83.0667 24.569 78.8997 17.2452 71.4824C9.92145 64.0652 5.80701 54.0052 5.80701 43.5156V5.93335Z" fill="#780096"/>
<path d="M48.2698 51.0885V31.1315C48.2698 27.8213 48.9138 24.5436 50.165 21.4855C51.4162 18.4274 53.25 15.649 55.5618 13.309C57.8736 10.9689 60.618 9.11313 63.6381 7.84759C66.6583 6.58206 69.8951 5.93159 73.1636 5.93335V25.897C73.1636 29.2069 72.5195 32.4844 71.2683 35.5421C70.017 38.5997 68.183 41.3777 65.8711 43.7172C63.5593 46.0567 60.8149 47.9119 57.7947 49.1767C54.7746 50.4415 51.5379 51.0912 48.2698 51.0885Z" fill="#780096"/>
<path d="M48.2698 54.9858H76.7994C84.1478 54.9858 91.1952 57.9422 96.3912 63.2046C101.587 68.467 104.506 75.6044 104.506 83.0465H75.9767C68.6284 83.0465 61.581 80.0902 56.385 74.8278C51.1889 69.5653 48.2698 62.428 48.2698 54.9858Z" fill="#780096"/>
</g>
<path d="M189.454 83.0667H173.485L156.109 54.5125L150.166 58.8698V83.0667H136.102V15.2969H150.166V46.3078C151.103 44.979 152.026 43.6502 152.933 42.3214C153.841 40.9925 154.763 39.6637 155.701 38.3349L173.666 15.2969H189.272L166.135 45.288L189.454 83.0667Z" fill="#780096"/>
<path d="M242.806 57.062C242.806 61.3884 242.231 65.2203 241.082 68.5578C239.963 71.8953 238.315 74.7229 236.137 77.0406C233.989 79.3274 231.388 81.058 228.334 82.2323C225.309 83.4066 221.892 83.9938 218.081 83.9938C214.512 83.9938 211.23 83.4066 208.236 82.2323C205.272 81.058 202.686 79.3274 200.478 77.0406C198.301 74.7229 196.607 71.8953 195.397 68.5578C194.217 65.2203 193.628 61.3884 193.628 57.062C193.628 51.3141 194.626 46.4469 196.622 42.4604C198.618 38.474 201.461 35.4455 205.151 33.375C208.841 31.3045 213.242 30.2693 218.353 30.2693C223.101 30.2693 227.305 31.3045 230.965 33.375C234.655 35.4455 237.543 38.474 239.63 42.4604C241.747 46.4469 242.806 51.3141 242.806 57.062ZM207.737 57.062C207.737 60.4613 208.1 63.3198 208.826 65.6375C209.552 67.9552 210.686 69.7012 212.228 70.8755C213.771 72.0498 215.782 72.637 218.262 72.637C220.712 72.637 222.693 72.0498 224.205 70.8755C225.748 69.7012 226.867 67.9552 227.562 65.6375C228.288 63.3198 228.651 60.4613 228.651 57.062C228.651 53.6318 228.288 50.7887 227.562 48.5328C226.867 46.246 225.748 44.5309 224.205 43.3875C222.663 42.2441 220.651 41.6724 218.171 41.6724C214.512 41.6724 211.85 42.9549 210.187 45.5198C208.554 48.0847 207.737 51.9321 207.737 57.062Z" fill="#780096"/>
<path d="M282.275 41.8578H270.298V83.0667H256.461V41.8578H248.84V35.0438L256.461 31.2427V27.4417C256.461 23.0226 257.187 19.5924 258.639 17.151C260.121 14.6788 262.193 12.9483 264.854 11.9594C267.546 10.9396 270.722 10.4297 274.382 10.4297C277.073 10.4297 279.523 10.6615 281.731 11.125C283.939 11.5576 285.738 12.0521 287.13 12.6083L283.591 22.9917C282.533 22.6517 281.383 22.3427 280.143 22.0646C278.903 21.7865 277.482 21.6474 275.879 21.6474C273.943 21.6474 272.521 22.25 271.614 23.4552C270.737 24.6295 270.298 26.1438 270.298 27.9979V31.2427H282.275V41.8578ZM318.252 41.8578H306.275V83.0667H292.438V41.8578H284.816V35.0438L292.438 31.2427V27.4417C292.438 23.0226 293.164 19.5924 294.615 17.151C296.097 14.6788 298.169 12.9483 300.831 11.9594C303.522 10.9396 306.698 10.4297 310.358 10.4297C313.05 10.4297 315.499 10.6615 317.707 11.125C319.915 11.5576 321.715 12.0521 323.106 12.6083L319.567 22.9917C318.509 22.6517 317.36 22.3427 316.119 22.0646C314.879 21.7865 313.458 21.6474 311.855 21.6474C309.919 21.6474 308.498 22.25 307.59 23.4552C306.713 24.6295 306.275 26.1438 306.275 27.9979V31.2427H318.252V41.8578Z" fill="#780096"/>
<defs>
<clipPath id="clip0_48_2375">
<rect width="98.7193" height="77.1333" fill="white" transform="translate(5.80701 5.93335)"/>
</clipPath>
</defs>
</svg>
